#!OML:ASF X:\für Bonn\!DataBase\2005_08_12_Daniel\c3d\Daniel.ASF
:FULLY-SPECIFIED
:DEGREES
1233
root 1.6122 17.5411 13.4482 -176.905 -27.4281 527.84
lowerback 11.0165 -3.27455 -8.87869
upperback 1.93412 -5.84732 -3.18413
thorax -3.60213 -2.94401 2.42362
lowerneck -0.521364 -2.24009 -11.909
upperneck 7.47002 -3.33528 7.31925
head 2.61718 -1.83984 4.06656
rclavicle -9.01054e-014 -3.57812e-015
rhumerus -47.7922 -23.9418 -65.989
rradius 15.0607
rwrist 31.483
rhand -17.1141 17.4372
rfingers 7.12502
rthumb 9.12523 -12.3454
lclavicle -9.01054e-014 -3.57812e-015
lhumerus -21.7251 22.4926 77.4801
lradius 24.1825
lwrist -25.8686
lhand -4.74045 -4.52948
lfingers 7.12502
lthumb 21.0428 24.3488
rfemur -31.2231 2.94314 13.4348
rtibia 35.0678
rfoot -15.3049 -4.12054
rtoes -6.34216
lfemur 11.091 -5.91658 -30.0318
ltibia 20.18
lfoot -20.2637 1.37129
ltoes -15.5614
1234
root 1.5356 17.5176 13.2728 -176.748 -27.2687 527.69
lowerback 10.852 -3.35504 -9.04219
upperback 1.94488 -5.94551 -3.10958
thorax -3.46486 -2.99575 2.58638
lowerneck -0.580619 -2.22558 -11.8344
upperneck 7.2772 -3.29062 7.26365
head 2.56336 -1.80928 4.03799
rclavicle -4.9516e-014 1.56419e-014
rhumerus -47.8671 -24.1632 -65.4569
rradius 14.9092
rwrist 32.0027
rhand -17.3445 17.6867
rfingers 7.12502
rthumb 8.90292 -12.1054
lclavicle -4.9516e-014 1.56419e-014
lhumerus -21.0166 21.3755 77.8853
lradius 24.4855
lwrist -24.7857
lhand -4.9184 -4.36773
lfingers 7.12502
lthumb 20.8718 24.5295
rfemur -31.6533 4.84254 12.5457
rtibia 33.1658
rfoot -16.721 -7.16426
rtoes -5.38622
lfemur 12.6147 -5.86472 -30.2311
ltibia 18.4845
lfoot -20.1584 1.48541
ltoes -15.7281
1235
root 1.46148 17.4931 13.0941 -176.595 -27.1316 527.558
lowerback 10.6527 -3.43936 -9.15566
upperback 1.98613 -6.04145 -3.07705
thorax -3.28559 -3.05159 2.67302
lowerneck -0.748573 -2.24816 -11.6819
upperneck 7.14266 -3.28861 7.22624
head 2.54773 -1.79615 3.99978
rclavicle -5.93248e-016 -1.04362e-015
rhumerus -47.9526 -24.4086 -65.0409
rradius 14.8495
rwrist 32.3824
rhand -17.384 17.8903
rfingers 7.12502
rthumb 8.86483 -11.9035
lclavicle -5.93248e-016 -1.04362e-015
lhumerus -20.3138 20.0275 78.2181
lradius 24.8316
lwrist -23.5085
lhand -5.17339 -4.22422
lfingers 7.12502
lthumb 20.6268 24.6998
rfemur -32.1924 7.29514 11.4421
rtibia 31.5882
rfoot -18.6599 -10.7144
rtoes -5.58354
lfemur 14.1196 -5.71999 -30.3498
ltibia 16.8145
lfoot -20.0614 1.46431
ltoes -16.1044
1236
root 1.39058 17.4688 12.9114 -176.42 -26.9874 527.387
lowerback 10.4567 -3.52252 -9.37373
upperback 2.01923 -6.1441 -3.00037
thorax -3.09946 -3.10929 2.86221
lowerneck -0.95404 -2.25628 -11.6384
upperneck 7.01636 -3.26159 7.21532
head 2.54064 -1.77211 3.98789
rclavicle -5.16033e-014 9.64106e-015
rhumerus -47.9673 -24.5723 -64.6319
rradius 14.8308
rwrist 32.7075
rhand -17.3843 17.9077
rfingers 7.12502
rthumb 8.86454 -11.8861
lclavicle -5.16033e-014 9.64106e-015
lhumerus -19.7539 18.7265 78.5476
lradius 25.2748
lwrist -22.1336
lhand -5.42777 -4.09798
lfingers 7.12502
lthumb 20.3824 24.8523
rfemur -32.8646 10.5264 9.9668
rtibia 30.3233
rfoot -21.0533 -14.9287
rtoes -6.56647
lfemur 15.6454 -5.57861 -30.4863
ltibia 15.1024
lfoot -19.9426 1.4552
ltoes -16.294
1237
root 1.31983 17.4361 12.7275 -176.266 -26.8684 527.233
lowerback 10.255 -3.59995 -9.51003
upperback 2.06954 -6.23127 -2.96011
thorax -2.90582 -3.16232 2.96557
lowerneck -1.09306 -2.28937 -11.5445
upperneck 6.81206 -3.27474 7.2175
head 2.50254 -1.76599 3.97138
rclavicle -5.77718e-014 -2.32578e-014
rhumerus -47.9736 -24.789 -64.2829
rradius 14.8105
rwrist 33.0149
rhand -17.3618 17.7674
rfingers 7.12502
rthumb 8.88624 -12.0255
lclavicle -5.77718e-014 -2.32578e-014
lhumerus -19.1964 17.5646 78.7802
lradius 25.6277
lwrist -21.0468
lhand -5.84233 -4.18096
lfingers 7.12502
lthumb 19.9839 24.8114
rfemur -33.6735 14.0841 8.28024
rtibia 29.3359
rfoot -23.7051 -19.4222
rtoes -7.12511
lfemur 17.1833 -5.39898 -30.5723
ltibia 13.4026
lfoot -19.8298 1.34081
ltoes -16.5141
1238
root 1.24811 17.393 12.5417 -176.041 -26.7769 527.005
lowerback 9.99505 -3.6858 -9.67102
upperback 2.12365 -6.32562 -2.93597
thorax -2.67377 -3.22152 3.05979
lowerneck -1.30284 -2.32707 -11.4242
upperneck 6.64608 -3.2855 7.17067
head 2.48618 -1.75887 3.93468
rclavicle -4.93483e-014 -4.96962e-014
rhumerus -48.0296 -25.2315 -63.7854
rradius 14.824
rwrist 33.5463
rhand -17.2873 17.6321
rfingers 7.12502
rthumb 8.95807 -12.1577
lclavicle -4.93483e-014 -4.96962e-014
lhumerus -18.7116 16.3754 78.9929
lradius 26.077
lwrist -19.928
lhand -6.21402 -4.3761
lfingers 7.12502
lthumb 19.6266 24.6532
rfemur -34.6321 17.6949 6.34125
rtibia 28.6025
rfoot -27.0104 -23.7492
rtoes -7.89062
lfemur 18.6692 -5.15387 -30.6676
ltibia 11.7459
lfoot -19.6626 1.07758
ltoes -16.7219
1239
root 1.17691 17.3413 12.3553 -175.867 -26.6842 526.826
lowerback 9.82098 -3.75291 -9.72012
upperback 2.14171 -6.3966 -2.93598
thorax -2.54458 -3.26351 3.07561
lowerneck -1.42915 -2.37221 -11.3581
upperneck 6.48122 -3.32394 7.23422
head 2.46133 -1.76644 3.94096
rclavicle 2.45996e-014 1.04362e-014
rhumerus -48.095 -25.5433 -63.4271
rradius 14.8539
rwrist 33.8768
rhand -17.1618 17.3596
rfingers 7.12502
rthumb 9.07925 -12.425
lclavicle 2.45996e-014 1.04362e-014
lhumerus -18.3489 15.3159 79.1207
lradius 26.5507
lwrist -19.0778
lhand -6.60303 -4.60929
lfingers 7.12502
lthumb 19.2526 24.4577
rfemur -35.6662 21.2485 4.36026
rtibia 28.0514
rfoot -30.5837 -28.0465
rtoes -7.68569
lfemur 20.1412 -5.04875 -30.7664
ltibia 10.2166
lfoot -19.4383 0.951228
ltoes -17.1228
1240
root 1.10605 17.2903 12.1674 -175.688 -26.628 526.613
lowerback 9.6729 -3.8267 -9.78339
upperback 2.16918 -6.48127 -2.93605
thorax -2.4166 -3.31289 3.1015
lowerneck -1.68475 -2.43419 -11.3629
upperneck 6.40426 -3.3753 7.35543
head 2.48719 -1.77962 3.97451
rclavicle -4.7112e-014 3.45885e-014
rhumerus -48.1638 -25.9195 -63.0375
rradius 14.8926
rwrist 34.3405
rhand -17.0781 17.0135
rfingers 7.12502
rthumb 9.15996 -12.7676
lclavicle -4.7112e-014 3.45885e-014
lhumerus -17.9872 14.5475 79.2363
lradius 27.0157
lwrist -18.4695
lhand -7.12049 -4.87908
lfingers 7.12502
lthumb 18.7549 24.2368
rfemur -36.6852 24.0502 2.56716
rtibia 27.6919
rfoot -33.8485 -31.7179
rtoes -6.39499
lfemur 21.632 -4.67972 -30.7549
ltibia 8.6623
lfoot -19.1955 0.424208
ltoes -17.4072
1241
root 1.03565 17.2417 11.9769 -175.531 -26.5817 526.456
lowerback 9.52854 -3.92085 -9.79225
upperback 2.20538 -6.58557 -2.92336
thorax -2.28337 -3.37238 3.11215
lowerneck -2.03734 -2.48384 -11.2794
upperneck 6.34674 -3.39778 7.40093
head 2.52953 -1.7765 3.9701
rclavicle 2.27111e-014 -3.57812e-014
rhumerus -48.1835 -26.1528 -62.8402
rradius 15.0102
rwrist 34.5016
rhand -16.94 16.6351
rfingers 7.12502
rthumb 9.29321 -13.14
lclavicle 2.27111e-014 -3.57812e-014
lhumerus -17.7031 13.9558 79.2861
lradius 27.566
lwrist -17.9818
lhand -7.56761 -5.19355
lfingers 7.12502
lthumb 18.3248 23.9633
rfemur -37.621 26.0113 1.16442
rtibia 27.506
rfoot -36.7552 -34.5266
rtoes -5.77316
lfemur 23.23 -4.33107 -30.6688
ltibia 6.86708
lfoot -18.7393 -0.133195
ltoes -17.4847
1242
root 0.964921 17.1937 11.7827 -175.346 -26.5132 526.294
lowerback 9.3481 -4.01623 -9.77489
upperback 2.21431 -6.68593 -2.9266
thorax -2.16423 -3.428 3.08953
lowerneck -2.34635 -2.54309 -11.1415
upperneck 6.31507 -3.44015 7.38175
head 2.57235 -1.78586 3.93656
rclavicle -4.74598e-015 -1.27222e-014
rhumerus -48.296 -26.5561 -62.4659
rradius 15.0281
rwrist 34.88
rhand -16.8722 16.4202
rfingers 7.12502
rthumb 9.35865 -13.352
lclavicle -4.74598e-015 -1.27222e-014
lhumerus -17.5002 13.6388 79.2844
lradius 28.0808
lwrist -17.7373
lhand -8.07206 -5.61152
lfingers 7.12502
lthumb 17.8395 23.5902
rfemur -38.2566 26.2522 0.620777
rtibia 27.5151
rfoot -38.2201 -35.7077
rtoes -5.72312
lfemur 25.2259 -3.98627 -30.5466
ltibia 4.29881
lfoot -17.8809 -0.73138
ltoes -17.452
1243
root 0.894141 17.148 11.5889 -175.235 -26.464 526.153
lowerback 9.27984 -4.09962 -9.72474
upperback 2.2154 -6.77987 -2.90353
thorax -2.11671 -3.47621 3.08677
lowerneck -2.68121 -2.59855 -11.1189
upperneck 6.31491 -3.47488 7.41191
head 2.63089 -1.79283 3.93692
rclavicle -2.74074e-014 -3.16068e-014
rhumerus -48.4836 -27.3073 -61.7244
rradius 14.7866
rwrist 35.6105
rhand -16.909 16.2964
rfingers 7.12502
rthumb 9.32315 -13.4774
lclavicle -2.74074e-014 -3.16068e-014
lhumerus -17.4119 13.6465 79.3138
lradius 28.62
lwrist -17.7898
lhand -8.61375 -5.98477
lfingers 7.12502
lthumb 17.3182 23.2636
rfemur -38.5389 25.3019 0.820095
rtibia 27.6858
rfoot -38.4664 -35.8288
rtoes -5.53093
lfemur 28.219 -3.67657 -30.3642
ltibia -3.81667e-014
lfoot -16.1484 -1.34207
ltoes -17.4988
1244
root 0.824385 17.1016 11.3903 -175.097 -26.4198 526.046
lowerback 9.15164 -4.21824 -9.66703
upperback 2.20911 -6.90815 -2.84512
thorax -2.03588 -3.54144 3.11299
lowerneck -3.0336 -2.64 -11.1528
upperneck 6.30448 -3.48557 7.44826
head 2.68817 -1.78834 3.94912
rclavicle 5.07895e-014 2.127e-014
rhumerus -48.7201 -28.3341 -60.6553
rradius 14.4204
rwrist 36.7723
rhand -16.9862 16.3491
rfingers 7.12502
rthumb 9.24862 -13.428
lclavicle 5.07895e-014 2.127e-014
lhumerus -17.3398 13.9463 79.327
lradius 29.0627
lwrist -17.9829
lhand -9.1851 -6.34216
lfingers 7.12502
lthumb 16.7683 22.9537
rfemur -38.6337 23.3968 1.58801
rtibia 27.9872
rfoot -37.6149 -34.8865
rtoes -4.51907
lfemur 28.8255 -3.36581 -30.1648
ltibia 1.27222e-014
lfoot -16.3077 -1.95123
ltoes -17.4412
